<svg xmlns="http://www.w3.org/2000/svg" width="100" height="50" viewBox="0 0 512 512"><g><path d="M94.525 244.688a6.521 6.521 0 0 0-5.267-4.439l-24.892-3.618-11.133-22.539c-2.197-4.458-9.49-4.458-11.687 0l-11.133 22.539-24.833 3.618a6.513 6.513 0 0 0-5.26 4.439 6.502 6.502 0 0 0 1.656 6.681l18.003 17.501-4.243 24.769a6.536 6.536 0 0 0 2.594 6.381 6.538 6.538 0 0 0 6.87.489l22.187-11.7 22.253 11.7c.952.502 1.995.75 3.031.75a6.611 6.611 0 0 0 3.846-1.238 6.54 6.54 0 0 0 2.594-6.381l-4.243-24.769 18.003-17.501a6.508 6.508 0 0 0 1.654-6.682zM198.814 244.688a6.521 6.521 0 0 0-5.267-4.439l-24.892-3.618-11.133-22.539c-2.197-4.458-9.49-4.458-11.687 0l-11.133 22.539-24.834 3.618a6.513 6.513 0 0 0-5.26 4.439 6.502 6.502 0 0 0 1.656 6.681l18.003 17.501-4.243 24.769a6.53 6.53 0 0 0 2.594 6.381 6.538 6.538 0 0 0 6.87.489l22.187-11.7 22.253 11.7c.952.502 1.995.75 3.031.75a6.611 6.611 0 0 0 3.846-1.238 6.54 6.54 0 0 0 2.594-6.381l-4.243-24.769 18.003-17.501a6.506 6.506 0 0 0 1.655-6.682zM303.103 244.688a6.521 6.521 0 0 0-5.267-4.439l-24.893-3.618-11.133-22.539c-2.197-4.458-9.49-4.458-11.687 0l-11.133 22.539-24.834 3.618a6.513 6.513 0 0 0-5.26 4.439 6.502 6.502 0 0 0 1.656 6.681l18.003 17.501-4.243 24.769a6.53 6.53 0 0 0 2.594 6.381 6.538 6.538 0 0 0 6.87.489l22.188-11.7 22.253 11.7c.952.502 1.995.75 3.031.75a6.611 6.611 0 0 0 3.846-1.238 6.54 6.54 0 0 0 2.594-6.381l-4.243-24.769 18.003-17.501a6.506 6.506 0 0 0 1.655-6.682zM407.392 244.681a6.521 6.521 0 0 0-5.267-4.439l-24.892-3.618-11.133-22.538c-2.197-4.458-9.49-4.458-11.687 0l-11.133 22.539-24.834 3.618a6.513 6.513 0 0 0-5.26 4.439 6.502 6.502 0 0 0 1.656 6.681l18.003 17.501-4.243 24.769a6.536 6.536 0 0 0 2.594 6.381 6.54 6.54 0 0 0 6.87.489l22.188-11.7 22.253 11.7c.952.502 1.995.75 3.031.75a6.611 6.611 0 0 0 3.846-1.238 6.54 6.54 0 0 0 2.594-6.381l-4.243-24.769 18.003-17.501a6.507 6.507 0 0 0 1.654-6.683zM511.681 244.688a6.521 6.521 0 0 0-5.267-4.439l-24.892-3.617-11.133-22.539c-2.197-4.458-9.49-4.458-11.687 0l-11.133 22.539-24.834 3.617a6.515 6.515 0 0 0-5.26 4.439 6.502 6.502 0 0 0 1.656 6.681l18.003 17.501-4.243 24.769a6.536 6.536 0 0 0 2.594 6.381 6.541 6.541 0 0 0 6.87.489l22.188-11.7 22.253 11.7c.952.502 1.995.75 3.031.75a6.611 6.611 0 0 0 3.846-1.238 6.54 6.54 0 0 0 2.594-6.381l-4.243-24.769 18.003-17.501a6.508 6.508 0 0 0 1.654-6.682zm-31.222 17.227a6.522 6.522 0 0 0-1.884 5.775l2.594 15.135-13.603-7.15a6.457 6.457 0 0 0-3.031-.75 6.457 6.457 0 0 0-3.031.75l-13.531 7.131 2.594-15.115a6.514 6.514 0 0 0-1.884-5.775l-10.976-10.67 15.128-2.203a6.52 6.52 0 0 0 4.902-3.565l6.798-13.773 6.798 13.773a6.5 6.5 0 0 0 4.908 3.565l15.187 2.21-10.969 10.662z" fill="#ffc309"></path></g></svg>